<svg width="180" height="36" viewBox="0 0 180 36" fill="none" xmlns="http://www.w3.org/2000/svg">
<!-- Graduation Cap Icon -->
<path d="M35.2836 14.3749V21.3775C35.2836 22.4003 34.8046 23.3509 34.0159 23.887C33.3529 24.3377 32.4602 24.9119 31.4053 25.5103V14.3749H35.2836Z" fill="#FF4667"/>
<path d="M31.2074 14.3749V25.5594C28.3643 27.1828 24.3495 28.9829 20.5386 28.9829C15.3155 28.9829 9.70946 25.6001 7.25922 23.9295C6.47051 23.3913 5.99155 22.4368 5.99155 21.4099V14.3749H31.2074Z" fill="#FF4667"/>
<path d="M35.0903 14.2289V21.0681C35.0903 22.0703 34.6112 23.0014 33.8227 23.526C31.3727 25.1561 25.7669 28.4567 20.5433 28.4567C15.3198 28.4567 9.71411 25.1561 7.26397 23.526C6.47546 23.0014 5.9964 22.0703 5.9964 21.0681V14.2289H35.0903ZM35.882 13.4339H5.20482V21.0681C5.20482 22.3464 5.81115 23.5131 6.82677 24.1888C8.1176 25.0477 10.1581 26.2901 12.5484 27.3319C15.4711 28.6059 18.1609 29.2518 20.5433 29.2518C22.9258 29.2518 25.6156 28.6059 28.5383 27.3319C30.9286 26.2901 32.9691 25.0476 34.2599 24.1888C35.2755 23.5131 35.882 22.3464 35.882 21.0681V13.4339Z" fill="#FF4667"/>
<path d="M30.8406 27.1815C30.0995 27.2715 29.4168 27.6307 28.9213 28.1915C28.4258 28.7522 28.1517 29.4757 28.151 30.2254V32.9303C28.151 34.027 28.7334 35.0404 29.6793 35.5887C30.6249 36.1371 31.7901 36.1371 32.7357 35.5887C33.6815 35.0404 34.2641 34.027 34.2641 32.9303V30.2254C34.2633 29.4757 33.9892 28.7522 33.4938 28.1915C32.9983 27.6307 32.3156 27.2715 31.5745 27.1815" fill="white"/>
<path d="M33.5302 30.5865H28.8847V30.2586C28.8847 28.9702 29.9247 27.9259 31.2074 27.9259C32.4902 27.9259 33.5301 28.9703 33.5301 30.2586L33.5302 30.5865Z" fill="white"/>
<path d="M39.0253 13.3221L21.4318 21.7341C20.8393 22.0173 20.1512 22.0166 19.5593 21.7321L1.86969 13.2289C0.229737 12.4406 0.221029 10.099 1.85505 9.29834L19.5351 0.63575C20.1405 0.339086 20.8487 0.341173 21.4525 0.641415L39.0556 9.39534C40.6814 10.2038 40.6634 12.539 39.0253 13.3221Z" fill="white"/>
<path d="M20.4881 0.78097C20.7306 0.78097 20.9729 0.835443 21.1959 0.944389L39.2158 9.74651C40.4089 10.3293 40.3958 12.0126 39.1936 12.5772L21.1808 21.0369C20.964 21.1387 20.7296 21.1897 20.4952 21.1897C20.2597 21.1897 20.0244 21.1383 19.8067 21.0355L1.69806 12.4854C0.494518 11.9171 0.488185 10.2292 1.68728 9.65201L19.7887 0.940288C20.0094 0.834076 20.2488 0.78097 20.4881 0.78097ZM20.4881 0C20.1274 0 19.7656 0.08249 19.4416 0.238391L1.34023 8.95012C0.510055 9.34968 -0.00344617 10.1638 1.74116e-05 11.0749C0.00348099 11.986 0.523117 12.7964 1.35626 13.1898L19.4648 21.7399C19.7845 21.8908 20.1408 21.9706 20.4951 21.9706C20.8478 21.9706 21.2026 21.8915 21.521 21.7419L39.5338 13.2823C40.366 12.8914 40.8874 12.0839 40.8945 11.1746C40.9017 10.2655 40.393 9.45004 39.567 9.04657L21.5472 0.244541C21.2197 0.0845401 20.8535 0 20.4881 0Z" fill="white"/>

<!-- Text: Azbahri -->
<text x="45" y="24" font-family="Arial, sans-serif" font-size="20" font-weight="700" fill="white">Azbahri</text>

<!-- Text: LMS in red -->
<text x="138" y="10" font-family="Arial, sans-serif" font-size="11" font-weight="600" fill="#FF4667">LMS</text>
</svg>
